<?xml version="1.0" encoding="UTF-8"?>
<svg xmlns="http://www.w3.org/2000/svg" xmlns:xlink="http://www.w3.org/1999/xlink" width="33px" height="33px" viewBox="0 0 33 33" version="1.1">
<g id="surface1">
<path style=" stroke:none;fill-rule:evenodd;fill:rgb(0%,0%,0%);fill-opacity:1;" d="M 16.5 2.0625 C 8.527344 2.0625 2.0625 8.6875 2.0625 16.867188 C 2.0625 23.410156 6.199219 28.953125 11.9375 30.910156 C 12.660156 31.046875 12.921875 30.589844 12.921875 30.195312 C 12.921875 29.84375 12.910156 28.914062 12.902344 27.675781 C 8.886719 28.570312 8.039062 25.691406 8.039062 25.691406 C 7.378906 23.984375 6.433594 23.523438 6.433594 23.523438 C 5.125 22.605469 6.527344 22.621094 6.527344 22.621094 C 7.980469 22.726562 8.738281 24.152344 8.738281 24.152344 C 10.027344 26.414062 12.117188 25.761719 12.941406 25.382812 C 13.070312 24.425781 13.445312 23.769531 13.855469 23.402344 C 10.652344 23.027344 7.28125 21.757812 7.28125 16.085938 C 7.28125 14.46875 7.84375 13.148438 8.765625 12.117188 C 8.617188 11.742188 8.121094 10.234375 8.90625 8.199219 C 8.90625 8.199219 10.117188 7.796875 12.878906 9.714844 C 14.03125 9.382812 15.261719 9.222656 16.492188 9.21875 C 17.71875 9.222656 18.957031 9.382812 20.109375 9.714844 C 22.867188 7.796875 24.074219 8.199219 24.074219 8.199219 C 24.859375 10.234375 24.363281 11.742188 24.214844 12.117188 C 25.136719 13.15625 25.699219 14.476562 25.699219 16.085938 C 25.699219 21.773438 22.320312 23.023438 19.105469 23.390625 C 19.621094 23.847656 20.082031 24.75 20.082031 26.128906 C 20.082031 28.109375 20.0625 29.707031 20.0625 30.191406 C 20.0625 30.582031 20.320312 31.046875 21.058594 30.898438 C 26.804688 28.945312 30.9375 23.402344 30.9375 16.867188 C 30.9375 8.6875 24.472656 2.0625 16.5 2.0625 Z M 16.5 2.0625 "/>
</g>
</svg>
