<?xml version="1.0" encoding="UTF-8"?>
<svg xmlns="http://www.w3.org/2000/svg" xmlns:xlink="http://www.w3.org/1999/xlink" width="33px" height="33px" viewBox="0 0 33 33" version="1.1">
<g id="surface1">
<path style=" stroke:none;fill-rule:evenodd;fill:rgb(0%,0%,0%);fill-opacity:1;" d="M 28.96875 0 C 31.195312 0 33 1.804688 33 4.03125 L 33 28.96875 C 33 31.195312 31.195312 33 28.96875 33 L 4.03125 33 C 1.804688 33 0 31.195312 0 28.96875 L 0 4.03125 C 0 1.804688 1.804688 0 4.03125 0 Z M 10.34375 27.28125 L 10.34375 12.734375 L 5.503906 12.734375 L 5.503906 27.28125 Z M 27.78125 27.28125 L 27.78125 18.9375 C 27.78125 14.46875 25.394531 12.390625 22.210938 12.390625 C 19.644531 12.390625 18.496094 13.800781 17.855469 14.792969 L 17.855469 12.734375 L 13.019531 12.734375 C 13.082031 14.097656 13.019531 27.28125 13.019531 27.28125 L 17.855469 27.28125 L 17.855469 19.15625 C 17.855469 18.722656 17.886719 18.289062 18.011719 17.976562 C 18.363281 17.109375 19.15625 16.207031 20.492188 16.207031 C 22.242188 16.207031 22.945312 17.542969 22.945312 19.496094 L 22.945312 27.28125 Z M 7.957031 5.71875 C 6.300781 5.71875 5.21875 6.804688 5.21875 8.230469 C 5.21875 9.628906 6.269531 10.746094 7.894531 10.746094 L 7.921875 10.746094 C 9.609375 10.746094 10.660156 9.628906 10.660156 8.230469 C 10.628906 6.808594 9.613281 5.722656 7.957031 5.71875 Z M 7.957031 5.71875 "/>
</g>
</svg>
