<?xml version="1.0" encoding="UTF-8"?>
<svg xmlns="http://www.w3.org/2000/svg" xmlns:xlink="http://www.w3.org/1999/xlink" width="33px" height="33px" viewBox="0 0 33 33" version="1.1">
<g id="surface1">
<path style=" stroke:none;fill-rule:nonzero;fill:rgb(0%,0%,0%);fill-opacity:1;" d="M 16.414062 9.71875 C 12.339844 9.71875 8.964844 13.035156 8.964844 17.167969 C 8.964844 21.300781 12.28125 24.617188 16.414062 24.617188 C 20.546875 24.617188 23.863281 21.242188 23.863281 17.167969 C 23.863281 13.09375 20.488281 9.71875 16.414062 9.71875 Z M 16.414062 21.941406 C 13.792969 21.941406 11.640625 19.789062 11.640625 17.167969 C 11.640625 14.550781 13.792969 12.398438 16.414062 12.398438 C 19.03125 12.398438 21.183594 14.550781 21.183594 17.167969 C 21.183594 19.789062 19.03125 21.941406 16.414062 21.941406 Z M 16.414062 21.941406 "/>
<path style=" stroke:none;fill-rule:nonzero;fill:rgb(0%,0%,0%);fill-opacity:1;" d="M 25.839844 9.546875 C 25.839844 10.476562 25.085938 11.234375 24.152344 11.234375 C 23.222656 11.234375 22.464844 10.476562 22.464844 9.546875 C 22.464844 8.613281 23.222656 7.855469 24.152344 7.855469 C 25.085938 7.855469 25.839844 8.613281 25.839844 9.546875 Z M 25.839844 9.546875 "/>
<path style=" stroke:none;fill-rule:nonzero;fill:rgb(0%,0%,0%);fill-opacity:1;" d="M 28.519531 5.179688 C 27.003906 3.609375 24.851562 2.792969 22.40625 2.792969 L 10.417969 2.792969 C 5.355469 2.792969 1.980469 6.167969 1.980469 11.234375 L 1.980469 23.164062 C 1.980469 25.667969 2.792969 27.820312 4.421875 29.390625 C 5.996094 30.90625 8.089844 31.660156 10.476562 31.660156 L 22.347656 31.660156 C 24.851562 31.660156 26.945312 30.847656 28.460938 29.390625 C 30.03125 27.878906 30.847656 25.726562 30.847656 23.222656 L 30.847656 11.234375 C 30.847656 8.789062 30.03125 6.691406 28.519531 5.179688 Z M 28.285156 23.222656 C 28.285156 25.027344 27.644531 26.480469 26.597656 27.472656 C 25.550781 28.460938 24.09375 28.984375 22.347656 28.984375 L 10.476562 28.984375 C 8.730469 28.984375 7.273438 28.460938 6.226562 27.472656 C 5.179688 26.421875 4.65625 24.96875 4.65625 23.164062 L 4.65625 11.234375 C 4.65625 9.488281 5.179688 8.03125 6.226562 6.984375 C 7.21875 5.996094 8.730469 5.472656 10.476562 5.472656 L 22.464844 5.472656 C 24.210938 5.472656 25.667969 5.996094 26.714844 7.042969 C 27.703125 8.089844 28.285156 9.546875 28.285156 11.234375 Z M 28.285156 23.222656 "/>
</g>
</svg>
